# AST/ASF file generated using VICON BodyLanguage
# -----------------------------------------------
:version 1.10
:name VICON
:units
  mass 1.0
  length 0.45
  angle deg
:documentation
   .ast/.asf automatically generated from VICON data using
   VICON BodyBuilder and BodyLanguage model FoxedUp or BRILLIANT.MOD
:root
   order TX TY TZ RX RY RZ
   axis XYZ
   position 0 0 0  
   orientation 0 0 0 
:bonedata
  begin
     id 1 
     name lhipjoint
     direction 0.558404 -0.748506 0.357664 
     length 2.4234 
     axis 0 0 0  XYZ
  end
  begin
     id 2 
     name lfemur
     direction 0.34202 -0.939693 0  
     length 7.14567  
     axis 0 0 20  XYZ
    dof rx ry rz
    limits (-160.0 20.0)
           (-70.0 70.0)
           (-60.0 70.0)
  end
  begin
     id 3 
     name ltibia
     direction 0.34202 -0.939693 0   
     length 8.13956   
     axis 0 0 20   XYZ
    dof rx
    limits (-10.0 170.0)
  end
  begin
     id 4 
     name lfoot
     direction 0.0791314 -0.217412 0.972867   
     length 2.00134   
     axis -90 7.62852e-016 20   XYZ
    dof rx rz
    limits (-45.0 90.0)
           (-70.0 20.0)
  end
  begin
     id 5 
     name ltoes
     direction 1.53547e-011 -4.21922e-011 1   
     length 1.00735   
     axis -90 7.62852e-016 20   XYZ
    dof rx
    limits (-90.0 20.0)
  end
  begin
     id 6 
     name rhipjoint
     direction -0.496392 -0.78327 0.374276   
     length 2.31584  
     axis 0 0 0  XYZ 
  end
  begin
     id 7 
     name rfemur
     direction -0.34202 -0.939693 0   
     length 7.47417   
     axis 0 0 -20   XYZ
    dof rx ry rz
    limits (-160.0 20.0)
           (-70.0 70.0)
           (-70.0 60.0)
  end
  begin
     id 8 
     name rtibia
     direction -0.34202 -0.939693 0   
     length 7.69071   
     axis 0 0 -20   XYZ
    dof rx
    limits (-10.0 170.0)
 end
 begin
     id 9 
     name rfoot
     direction -0.103069 -0.28318 0.953512   
     length 2.16135  
     axis -90 -7.62852e-016 -20   XYZ
    dof rx rz
    limits (-45.0 90.0)
           (-20.0 70.0)
  end
  begin
     id 10 
     name rtoes
     direction -1.53581e-011 -4.21904e-011 1   
     length 1.07867   
     axis -90 -7.62852e-016 -20   XYZ
    dof rx
    limits (-90.0 20.0)
  end
  begin
     id 11 
     name lowerback
     direction -0.0258961 0.994776 -0.0987407   
     length 2.19412   
     axis 0 0 0   XYZ
    dof rx ry rz
    limits (-20.0 45.0)
           (-30.0 30.0)
           (-30.0 30.0)
  end
  begin
     id 12 
     name upperback
     direction 0.0402454 0.999185 0.00320666   
     length 2.18445   
     axis 0 0 0   XYZ
    dof rx ry rz
    limits (-20.0 45.0)
           (-30.0 30.0)
           (-30.0 30.0)
  end
  begin
     id 13 
     name thorax
     direction 0.0519376 0.997415 0.0496558   
     length 2.21487   
     axis 0 0 0   XYZ
    dof rx ry rz
    limits (-20.0 45.0)
           (-30.0 30.0)
           (-30.0 30.0)
  end
  begin
     id 14 
     name lowerneck
     direction -0.0921276 0.983211 0.157506   
     length 1.61201   
     axis 0 0 0   XYZ
    dof rx ry rz
    limits (-20.0 45.0)
           (-30.0 30.0)
           (-30.0 30.0)
  end
  begin
     id 15 
     name upperneck
     direction 0.0820814 0.98162 -0.172292   
     length 1.65275   
     axis 0 0 0   XYZ
    dof rx ry rz
    limits (-20.0 45.0)
           (-30.0 30.0)
           (-30.0 30.0)
  end
  begin
     id 16
     name head
     direction 0.0336554 0.996413 -0.0776455  
     length 1.66415  
     axis 0 0 0   XYZ
    dof rx ry rz
    limits (-20.0 45.0)
           (-30.0 30.0)
           (-30.0 30.0)
  end
  begin
     id 17 
     name lclavicle
     direction 0.94696 0.284418 -0.149576  
     length 3.41447  
     axis 0 0 0   XYZ
    dof ry rz
    limits (-20.0 10.0)
           (0.0 20.0)
  end
  begin
     id 18 
     name lhumerus
     direction 1 -0.000130264 -9.81312e-005   
     length 5.19964   
     axis 180 -30 -90   XYZ
    dof rx ry rz
    limits (-60.0 90.0)
           (-90.0 90.0)
           (-90.0 90.0)
  end
  begin
     id 19
     name lradius
     direction 1 -4.48961e-011 1.43854e-026   
     length 3.32189   
     axis 180 -30 -90   XYZ
    dof rx
    limits (-10.0 170.0)
  end
  begin
     id 20
     name lwrist
     direction 1 -4.48958e-011 3.1502e-026   
     length 1.66095   
     axis -1.97692e-014 90 90   XYZ
    dof ry
    limits (-180.0 0.0)
 end
  begin
     id 21 
     name lhand
     direction 1 -4.48927e-011 6.3004e-026   
     length 0.645616   
     axis -4.02019e-014 90 90   XYZ
    dof rx rz
    limits (-90.0 90.0)
           (-45.0 45.0)
  end
  begin
     id 22 
     name lfingers
     direction 1 -4.4904e-011 1.26008e-025   
     length 0.520512   
     axis -8.04039e-014 90 90   XYZ
    dof rx
    limits (0.0 90.0)
  end
  begin
     id 23
     name lthumb
     direction 0.707107 -6.34947e-011 0.707107   
     length 0.747354   
     axis -90 45 2.85299e-015   XYZ
    dof rx rz
    limits (-45.0 45.0)
           (-45.0 45.0)
  end
  begin
     id 24 
     name rclavicle
     direction -0.909391 0.383475 -0.161107   
     length 3.25176  
     axis 0 0 0   XYZ 
    dof ry rz
    limits (-10.0 20.0)
           (-20.0 0.0)
  end
  begin
     id 25 
     name rhumerus
     direction -1 -4.48965e-011 -1.81384e-027  
     length 5.6595   
     axis 180 30 90   XYZ
    dof rx ry rz
    limits (-90.0 60.0)
           (-90.0 90.0)
           (-90.0 90.0)
  end
  begin
     id 26 
     name rradius
     direction -1 -4.48996e-011 -8.09397e-027   
     length 3.37604   
     axis 180 30 90   XYZ
    dof rx
    limits (-10.0 170.0)
  end
  begin
     id 27 
     name rwrist
     direction -1 -4.48927e-011 -1.56669e-026   
     length 1.68802   
     axis 1.21142e-014 -90 -90   XYZ
    dof ry
    limits (-180.0 0.0)
  end
  begin
     id 28
     name rhand
     direction -1 -4.48912e-011 -3.13339e-026   
     length 0.824702   
     axis 1.99937e-014 -90 -90   XYZ
    dof rx rz
    limits (-90.0 90.0)
           (-45.0 45.0)
  end
  begin
     id 29
     name rfingers
     direction -1 -4.49011e-011 -6.26677e-026   
     length 0.664896   
     axis 3.99874e-014 -90 -90   XYZ
    dof rx
    limits (0.0 90.0)
  end
  begin
     id 30
     name rthumb
     direction -0.707107 -6.34931e-011 0.707107   
     length 0.954662   
     axis -90 -45 -2.85299e-015   XYZ
    dof rx rz
    limits (-45.0 45.0)
           (-45.0 45.0)
  end
:hierarchy
  begin
    root lhipjoint rhipjoint lowerback
    lhipjoint lfemur
    lfemur ltibia
    ltibia lfoot
    lfoot ltoes
    rhipjoint rfemur
    rfemur rtibia
    rtibia rfoot
    rfoot rtoes
    lowerback upperback
    upperback thorax
    thorax lowerneck lclavicle rclavicle
    lowerneck upperneck
    upperneck head
    lclavicle lhumerus
    lhumerus lradius
    lradius lwrist
    lwrist lhand lthumb
    lhand lfingers
    rclavicle rhumerus
    rhumerus rradius
    rradius rwrist
    rwrist rhand rthumb
    rhand rfingers
  end

#!OML:ASF F:\VICON\USERDATA\INSTALL\rory3\rory3.ASF
:FULLY-SPECIFIED
:DEGREES
351
root 9.17573 17.8434 -14.6707 3.33139 -7.00745 -4.1519
lowerback 3.00183 3.73629 -0.0533343
upperback -0.929582 5.05606 2.68429
thorax -2.88403 2.54897 2.50657
lowerneck -11.0733 -7.00677 -16.1563
upperneck 22.2299 -9.64038 13.072
head 10.3562 -4.52085 6.15604
rclavicle -6.22444e-015 1.15295e-014
rhumerus -24.6009 -18.2151 -68.8444
rradius 39.229
rwrist -12.4732
rhand -10.368 17.0435
rfingers 7.12502
rthumb 15.6292 -12.3451
lclavicle -6.22444e-015 1.15295e-014
lhumerus -31.0336 23.5599 70.6776
lradius 29.357
lwrist -13.7785
lhand -0.292913 31.356
lfingers 7.12502
lthumb 25.3098 59.6967
rfemur -9.85326 -6.81091 18.6948
rtibia 33.5423
rfoot -20.6248 -19.8204
rtoes 12.1838
lfemur -16.6802 -9.72219 -13.2404
ltibia 36.9052
lfoot -20.1615 -3.66727
ltoes -1.51737
352
root 9.18003 17.8442 -14.6795 3.43036 -7.18366 -4.20372
lowerback 2.97338 3.73745 -0.0445639
upperback -0.910825 5.0586 2.74093
thorax -2.85332 2.55054 2.56244
lowerneck -11.0648 -7.03406 -16.1521
upperneck 22.2992 -9.69138 13.0802
head 10.3887 -4.54399 6.15333
rclavicle 1.04859e-014 2.38542e-015
rhumerus -24.5593 -17.9607 -69.1299
rradius 39.3903
rwrist -12.4997
rhand -10.4901 16.8828
rfingers 7.12502
rthumb 15.5117 -12.515
lclavicle 1.04859e-014 2.38542e-015
lhumerus -31.2027 23.5916 70.83
lradius 29.3496
lwrist -13.7901
lhand -0.14872 31.5768
lfingers 7.12502
lthumb 25.4479 59.898
rfemur -10.0352 -6.6744 18.7556
rtibia 33.5902
rfoot -20.6425 -19.7434
rtoes 12.4131
lfemur -16.7876 -9.59913 -13.1752
ltibia 36.8939
lfoot -20.1315 -3.67742
ltoes -0.955845
353
root 9.1863 17.8459 -14.6856 3.48709 -7.36392 -4.10758
lowerback 3.09986 3.71864 -0.128864
upperback -0.99386 5.03351 2.71396
thorax -3.01375 2.54017 2.57102
lowerneck -10.9552 -7.06729 -16.1337
upperneck 22.3145 -9.76971 13.1049
head 10.3866 -4.58078 6.1505
rclavicle -1.61637e-014 1.31198e-014
rhumerus -24.7858 -17.5769 -69.431
rradius 39.5773
rwrist -12.6745
rhand -10.4126 16.8375
rfingers 7.12502
rthumb 15.5863 -12.5545
lclavicle -1.61637e-014 1.31198e-014
lhumerus -31.4624 23.7139 70.7664
lradius 29.1496
lwrist -13.9206
lhand -0.102755 31.2854
lfingers 7.12502
lthumb 25.4919 59.6002
rfemur -10.1763 -6.60259 18.6317
rtibia 33.6381
rfoot -20.7529 -19.4903
rtoes 13.4248
lfemur -16.8525 -9.58859 -13.2922
ltibia 36.8813
lfoot -20.0841 -3.55129
ltoes -0.626094
354
root 9.19548 17.846 -14.6855 3.49917 -7.64936 -3.98209
lowerback 3.25723 3.70092 -0.163121
upperback -1.08998 5.01032 2.62419
thorax -3.19509 2.52911 2.48479
lowerneck -11.0556 -7.01875 -15.9492
upperneck 22.5396 -9.7335 13.0476
head 10.4671 -4.55205 6.10856
rclavicle 3.55825e-014 -7.15625e-015
rhumerus -25.0707 -17.3133 -69.8117
rradius 39.7667
rwrist -12.7539
rhand -10.4069 16.756
rfingers 7.12502
rthumb 15.5918 -12.6356
lclavicle 3.55825e-014 -7.15625e-015
lhumerus -31.7352 23.806 70.5771
lradius 28.8955
lwrist -14.0771
lhand -0.0295853 30.9457
lfingers 7.12502
lthumb 25.562 59.2505
rfemur -10.2924 -6.52571 18.4437
rtibia 33.6893
rfoot -20.5084 -19.4232
rtoes 12.6446
lfemur -16.8127 -9.60367 -13.4843
ltibia 36.8681
lfoot -20.0748 -3.28544
ltoes -0.287979
355
root 9.20093 17.845 -14.6845 3.53087 -7.93696 -4.0069
lowerback 3.22079 3.67298 -0.137412
upperback -1.07666 4.97334 2.63057
thorax -3.15741 2.51003 2.48252
lowerneck -11.0514 -6.91012 -15.8503
upperneck 22.6816 -9.62337 13.0821
head 10.4941 -4.49095 6.12702
rclavicle -4.18442e-014 2.70347e-014
rhumerus -25.1289 -17.1247 -70.1871
rradius 39.8594
rwrist -12.5552
rhand -10.4865 16.7845
rfingers 7.12502
rthumb 15.5151 -12.6131
lclavicle -4.18442e-014 2.70347e-014
lhumerus -31.9566 23.761 70.5842
lradius 28.8228
lwrist -13.9427
lhand 0.22934 30.6185
lfingers 7.12502
lthumb 25.81 58.8875
rfemur -10.4063 -6.34114 18.4566
rtibia 33.7525
rfoot -20.2284 -19.4745
rtoes 11.2862
lfemur -16.7641 -9.47979 -13.4897
ltibia 36.8495
lfoot -20.1414 -3.03134
ltoes -0.980945
356
root 9.20555 17.8439 -14.6827 3.52088 -8.14492 -4.03331
lowerback 3.04279 3.62033 -0.143267
upperback -0.918019 4.89822 2.70678
thorax -2.89724 2.47188 2.58681
lowerneck -11.0065 -6.88142 -15.9318
upperneck 22.6138 -9.59442 13.194
head 10.4662 -4.47536 6.18673
rclavicle 3.23398e-014 1.31198e-014
rhumerus -24.9272 -16.9926 -70.4736
rradius 39.8282
rwrist -12.3671
rhand -10.3739 17.0278
rfingers 7.12502
rthumb 15.6236 -12.3613
lclavicle 3.23398e-014 1.31198e-014
lhumerus -31.9039 23.9188 70.8046
lradius 28.632
lwrist -13.8831
lhand 0.267738 31.0602
lfingers 7.12502
lthumb 25.8468 59.3238
rfemur -10.4217 -6.19057 18.4613
rtibia 33.8171
rfoot -20.3222 -19.3576
rtoes 11.4468
lfemur -16.7081 -9.2736 -13.4849
ltibia 36.8477
lfoot -20.1872 -3.02093
ltoes -1.39835
357
root 9.21576 17.8416 -14.6833 3.44806 -8.44593 -3.91323
lowerback 3.07254 3.60943 -0.2539
upperback -0.855841 4.87883 2.73702
thorax -2.86087 2.46392 2.68079
lowerneck -11.0407 -6.86015 -15.9061
upperneck 22.5843 -9.55867 13.1792
head 10.4536 -4.45707 6.18025
rclavicle -7.35876e-014 1.59028e-015
rhumerus -24.9669 -16.7997 -70.6479
rradius 39.828
rwrist -12.3883
rhand -10.2554 17.1999
rfingers 7.12502
rthumb 15.7377 -12.1803
lclavicle -7.35876e-014 1.59028e-015
lhumerus -31.8876 24.2859 70.8944
lradius 28.1715
lwrist -14.1833
lhand 0.109637 31.5366
lfingers 7.12502
lthumb 25.6954 59.8222
rfemur -10.4232 -6.10466 18.247
rtibia 33.8762
rfoot -20.4708 -19.1329
rtoes 11.8693
lfemur -16.5937 -9.09102 -13.6905
ltibia 36.873
lfoot -20.1929 -2.96735
ltoes -0.971408
358
root 9.22801 17.8404 -14.6925 3.42632 -8.78612 -3.93553
lowerback 3.30757 3.62522 -0.199446
upperback -0.955472 4.90831 2.75254
thorax -3.09418 2.47903 2.6453
lowerneck -10.84 -6.77396 -15.8445
upperneck 22.5855 -9.49501 13.2363
head 10.4024 -4.42512 6.20533
rclavicle 8.35641e-014 6.36111e-015
rhumerus -25.3509 -16.5991 -70.7979
rradius 39.933
rwrist -12.4434
rhand -10.1991 17.148
rfingers 7.12502
rthumb 15.7919 -12.2278
lclavicle 8.35641e-014 6.36111e-015
lhumerus -32.109 24.4865 70.8302
lradius 27.7309
lwrist -14.6362
lhand 0.110001 31.3288
lfingers 7.12502
lthumb 25.6957 59.6143
rfemur -10.5273 -5.95736 18.2089
rtibia 33.9436
rfoot -20.3622 -19.0169
rtoes 11.5051
lfemur -16.5248 -8.93185 -13.7381
ltibia 36.8955
lfoot -20.1579 -2.77817
ltoes -0.732974
359
root 9.23794 17.8398 -14.7002 3.47829 -9.13554 -4.11341
lowerback 3.43139 3.61532 0.00886113
upperback -1.00799 4.90862 2.79525
thorax -3.20432 2.47594 2.56352
lowerneck -10.496 -6.68095 -15.8182
upperneck 22.4776 -9.43806 13.347
head 10.2896 -4.39916 6.25454
rclavicle -1.0138e-014 -1.59028e-014
rhumerus -25.6058 -16.448 -71.0351
rradius 40.0337
rwrist -12.4241
rhand -10.0789 17.0295
rfingers 7.12502
rthumb 15.9077 -12.3371
lclavicle -1.0138e-014 -1.59028e-014
lhumerus -32.3885 24.5246 70.8289
lradius 27.5295
lwrist -14.9092
lhand 0.0437795 30.9263
lfingers 7.12502
lthumb 25.6323 59.2211
rfemur -10.6837 -5.71774 18.381
rtibia 34.0228
rfoot -20.1861 -18.9864
rtoes 11.0421
lfemur -16.5153 -8.73274 -13.585
ltibia 36.9031
lfoot -20.1312 -2.62861
ltoes -0.690038
360
root 9.24801 17.8384 -14.6991 3.43403 -9.58748 -3.98208
lowerback 3.39988 3.60957 -0.123633
upperback -0.86807 4.89046 2.79295
thorax -3.0521 2.46806 2.64308
lowerneck -10.3881 -6.64202 -15.6498
upperneck 22.3087 -9.39448 13.2575
head 10.1858 -4.37717 6.19373
rclavicle 4.03657e-014 -7.95139e-015
rhumerus -25.4647 -16.3604 -71.342
rradius 39.9519
rwrist -12.2859
rhand -9.93135 17.2799
rfingers 7.12502
rthumb 16.0498 -12.0754
lclavicle 4.03657e-014 -7.95139e-015
lhumerus -32.4235 24.8492 70.9136
lradius 27.2908
lwrist -15.1708
lhand -0.120594 30.7903
lfingers 7.12502
lthumb 25.4749 59.1076
rfemur -10.7683 -5.51391 18.1786
rtibia 34.0991
rfoot -20.0378 -18.8966
rtoes 10.4175
lfemur -16.3828 -8.61542 -13.8158
ltibia 36.906
lfoot -20.1693 -2.29319
ltoes -0.642723
361
root 9.25963 17.8391 -14.7031 3.41262 -9.91863 -3.67901
lowerback 3.39944 3.56926 -0.445398
upperback -0.75604 4.81862 2.7546
thorax -2.95592 2.43657 2.79113
lowerneck -10.2842 -6.62657 -15.4279
upperneck 22.1331 -9.37364 13.0875
head 10.078 -4.36873 6.08994
rclavicle -4.21672e-014 7.15625e-015
rhumerus -25.2052 -16.381 -71.6147
rradius 39.642
rwrist -12.0404
rhand -9.89879 17.5462
rfingers 7.12502
rthumb 16.0811 -11.8066
lclavicle -4.21672e-014 7.15625e-015
lhumerus -32.2642 25.3793 70.9728
lradius 26.7931
lwrist -15.6886
lhand -0.0593934 31.1735
lfingers 7.12502
lthumb 25.5335 59.4824
rfemur -10.9138 -5.42949 17.7777
rtibia 34.1808
rfoot -19.9098 -18.7795
rtoes 9.99287
lfemur -16.3366 -8.58979 -14.2323
ltibia 36.9072
lfoot -20.1803 -1.94033
ltoes -0.695793
